<svg width="1807" height="213" viewBox="0 0 1807 213" fill="none" xmlns="http://www.w3.org/2000/svg">
<g opacity="0.6">
<path opacity="0.15" d="M871 76.9469L882.888 87.1364L959.067 68.213M889.681 67L942.084 72.3373L913.214 93.9295" stroke="white" stroke-width="6" stroke-miterlimit="10" stroke-linecap="round" stroke-linejoin="round"/>
</g>
<g opacity="0.6">
<path opacity="0.15" d="M556 36.9469L568.13 47.1364L644.309 28.213M574.681 27L627.084 32.3374L598.456 53.9295" stroke="white" stroke-width="6" stroke-miterlimit="10" stroke-linecap="round" stroke-linejoin="round"/>
</g>
<g opacity="0.6">
<path opacity="0.15" d="M3.26074 166.947L15.3911 177.136L91.5701 157.97M22.1842 157L74.5875 162.337L45.7171 183.687" stroke="white" stroke-width="6" stroke-miterlimit="10" stroke-linecap="round" stroke-linejoin="round"/>
</g>
<g opacity="0.6">
<path opacity="0.15" d="M599.834 186.601L611.965 196.79L688.144 177.624M618.758 176.654L671.161 181.991L642.291 203.583" stroke="white" stroke-width="6" stroke-miterlimit="10" stroke-linecap="round" stroke-linejoin="round"/>
</g>
<g opacity="0.6">
<path opacity="0.15" d="M1564.44 12.968L1576.57 23.1576L1652.75 4.23413M1583.13 3.26367L1635.53 8.60108L1606.9 29.9506" stroke="white" stroke-width="6" stroke-miterlimit="10" stroke-linecap="round" stroke-linejoin="round"/>
</g>
<g opacity="0.6">
<path opacity="0.15" d="M1036.53 193.735L1048.66 203.924L1124.6 184.758M1055.21 183.788L1107.61 189.125L1078.74 210.475" stroke="white" stroke-width="6" stroke-miterlimit="10" stroke-linecap="round" stroke-linejoin="round"/>
</g>
<g opacity="0.6">
<path opacity="0.15" d="M1715.16 166.297L1727.04 176.487L1803.22 157.563M1733.84 156.593L1786.24 161.93L1757.37 183.28" stroke="white" stroke-width="6" stroke-miterlimit="10" stroke-linecap="round" stroke-linejoin="round"/>
</g>
<g opacity="0.6">
<path opacity="0.15" d="M1249 117.704L1261.13 127.894L1337.31 108.97M1267.92 108L1320.33 113.337L1291.46 134.687" stroke="white" stroke-width="6" stroke-miterlimit="10" stroke-linecap="round" stroke-linejoin="round"/>
</g>
</svg>
