<svg width="857" height="380" viewBox="0 0 857 380" fill="none" xmlns="http://www.w3.org/2000/svg">
<path opacity="0.5" d="M494.25 375.195C685.285 375.195 840.148 369.422 840.148 362.301C840.148 355.179 685.285 349.406 494.25 349.406C303.216 349.406 148.352 355.179 148.352 362.301C148.352 369.422 303.216 375.195 494.25 375.195Z" fill="#B5C0D9"/>
<path d="M267.141 360.536H256.507C256.211 360.536 255.99 360.314 255.99 360.019V248.904H267.658V360.019C267.621 360.314 267.4 360.536 267.141 360.536Z" fill="#868FA4"/>
<path d="M366.838 360.536H356.204C355.908 360.536 355.687 360.314 355.687 360.019V248.904H367.355V360.019C367.355 360.314 367.134 360.536 366.838 360.536Z" fill="#868FA4"/>
<path d="M366.358 286.348H256.875C256.322 286.348 255.879 285.905 255.879 285.351V217.146C255.879 216.592 256.322 216.149 256.875 216.149H363.256C365.546 216.149 367.392 217.995 367.392 220.285V285.351C367.355 285.905 366.912 286.348 366.358 286.348Z" fill="#F0B77C"/>
<path d="M266.218 172.168H183.027C182.251 172.168 181.623 172.796 181.623 173.571V236.237H267.621V173.608C267.621 172.796 266.994 172.168 266.218 172.168Z" fill="#FFE7C7"/>
<path d="M285.382 172.168H202.19C201.415 172.168 200.787 172.796 200.787 173.571V236.237H286.785V173.608C286.785 172.796 286.157 172.168 285.382 172.168Z" fill="#F0B77C"/>
<path d="M344.572 278.15H204.405C204.073 278.15 203.778 277.855 203.778 277.522V234.871C203.778 234.539 204.073 234.243 204.405 234.243H342.615C344.055 234.243 345.2 235.388 345.2 236.828V277.559C345.2 277.892 344.905 278.15 344.572 278.15Z" fill="#FFBC68"/>
<path d="M192.775 360.536H182.14C181.845 360.536 181.623 360.314 181.623 360.019V248.904H193.292V360.019C193.292 360.314 193.033 360.536 192.775 360.536Z" fill="#868FA4"/>
<path d="M292.509 360.536H281.875C281.579 360.536 281.358 360.314 281.358 360.019V248.904H292.989V360.019C292.989 360.314 292.767 360.536 292.509 360.536Z" fill="#B5C0D9"/>
<path d="M289.998 54.1837C293.69 61.0523 293.764 69.7672 290.145 76.6727C286.416 83.7997 279.105 89.1543 277.813 97.0937C276.631 104.073 290.219 105.993 286.896 112.271C274.526 135.794 198.055 120.801 217.625 103.63C229.884 92.884 206.474 73.94 228.665 54.2576C235.09 48.5707 239.484 40.4097 247.46 37.2339C251.337 35.6829 255.694 35.3136 259.756 36.1999C263.892 37.0862 266.587 39.9665 270.391 41.3698C278.514 44.2502 285.493 45.875 289.998 54.1837Z" fill="#201212"/>
<path d="M270.465 69.6563C273.086 68.5485 275.634 67.256 277.997 65.6681C277.591 65.9266 281.025 70.0625 281.395 70.3948C282.798 71.7981 284.496 73.0906 286.342 73.8661C288.853 74.937 289.813 71.9089 290.035 69.8409C290.589 64.708 288.632 59.1688 286.97 54.4051C285.826 51.1924 282.133 51.8202 280.656 48.7183L241.885 46.798C241.885 46.798 244.063 83.0241 244.211 82.581C245.504 78.6297 258.501 73.3121 259.978 72.9429C263.56 72.1305 267.068 71.0595 270.465 69.6563Z" fill="#201212"/>
<path d="M276.89 120.358C276.816 126.488 271.388 131.4 264.815 131.326C258.206 131.252 252.962 126.193 253.036 120.026C253.11 113.896 258.538 108.984 265.11 109.058C271.683 109.169 276.963 114.228 276.89 120.358Z" fill="#0D1E41"/>
<path d="M357.054 303.778C355.282 274.494 353.029 243.549 350.998 239.081C347.047 230.329 271.019 208.246 271.019 208.246L230.992 204.11C230.992 204.11 322.086 227.596 326.702 247.796C328.474 255.514 328.474 255.329 328.179 276.895C328.068 283.911 330.542 294.915 333.939 306.622C336.413 315.078 339.33 323.904 342.099 331.843C347.638 331.031 353.066 329.554 358.42 327.744C358.014 320.322 357.571 312.124 357.054 303.778Z" fill="#2E4885"/>
<path d="M342.099 331.843C347.306 346.651 351.995 358.283 351.995 358.283L359.934 358.394C359.934 358.394 359.343 345.285 358.42 327.744C353.066 329.554 347.638 331.068 342.099 331.843Z" fill="#FFB896"/>
<path d="M303.475 335.093C305.211 347.981 306.762 357.656 306.762 357.656L314.036 357.766C314.036 357.766 315.771 348.424 318.172 335.019C313.261 335.388 308.35 335.241 303.475 335.093Z" fill="#FFB896"/>
<path d="M331.317 242.515C328.732 233.283 262.932 207.323 262.932 207.323L230.992 204.11C230.992 204.11 223.127 209.428 218.401 225.048C209.723 253.667 305.174 249.31 304.842 254.775C304.546 260.24 300.965 257.803 298.823 276.082C298.048 282.655 298.86 294.989 300.189 308.099C301.112 317.257 302.331 326.821 303.439 335.056C308.35 335.204 313.261 335.388 318.135 334.982C319.612 326.747 321.347 316.961 323.046 306.88C327.92 278.298 332.646 247.316 331.317 242.515Z" fill="#365DAB"/>
<path d="M269.024 110.905C269.024 110.905 277.037 114.523 285.013 136.717C292.989 158.911 291.844 159.206 296.755 163.12C301.666 167.035 323.673 173.349 323.673 173.349L321.827 182.507C321.827 182.507 296.94 181.178 287.339 174.162C277.739 167.182 263.375 127.633 262.71 121.134C262.046 114.634 262.821 107.507 269.024 110.905Z" fill="#FFA379"/>
<path d="M315.365 176.34C314.664 179.701 318.836 183.431 324.671 184.612C330.505 185.794 335.785 184.021 336.45 180.624C337.151 177.264 332.979 173.534 327.145 172.352C321.31 171.208 316.03 172.98 315.365 176.34Z" fill="#FFA379"/>
<path d="M287.93 134.095L268.914 140.631C268.914 140.631 254.772 116.333 265.554 109.095C276.89 108.098 287.93 134.095 287.93 134.095Z" fill="url(#paint0_linear_2_774)"/>
<path d="M249.159 103.741C269.911 102.781 282.281 115.853 282.687 137.751C282.502 150.122 274.379 152.855 274.379 152.855L270.982 208.246C270.982 208.246 263.338 210.277 252.63 210.129C241.922 209.982 230.918 204.11 230.918 204.11C230.918 204.11 235.017 194.657 235.903 183.948C236.752 173.239 230.438 147.463 228.85 140.078C227.373 132.692 221.096 103.593 249.159 103.741Z" fill="url(#paint1_linear_2_774)"/>
<path d="M247.202 83.9843L243.768 104.147C243.768 104.147 261.381 128.002 264.372 130.735C265.812 119.176 263.966 108.394 263.486 105.735C263.006 103.076 263.523 77.3743 263.523 77.3743L247.202 83.9843Z" fill="#FFBD96"/>
<path opacity="0.4" d="M246.094 90.5206L247.202 83.9844L253.996 81.2517L261.012 84.3167L263.301 86.8278L263.412 87.4925C263.375 90.5575 263.338 93.881 263.338 96.8721C259.498 96.7613 251.596 95.8751 246.094 90.5206Z" fill="black"/>
<path d="M257.467 94.6565L261.492 95.2104C269.763 96.3552 277.406 90.5575 278.551 82.2857L282.871 51.0818L246.795 46.0966L242.771 75.2695C241.478 84.686 248.051 93.364 257.467 94.6565Z" fill="#FFBD96"/>
<path d="M263.59 86.5988C263.602 87.0311 265.415 88.0096 267.601 87.9504C269.788 87.8913 271.541 86.654 271.527 86.1136C271.516 85.7354 269.788 86.5396 267.602 86.5988C265.413 86.6039 263.577 86.1124 263.59 86.5988Z" fill="white"/>
<path d="M268.384 81.3145L268.292 80.9446C268.8 80.8521 269.031 80.8058 269.539 80.6671C270.416 80.4821 270.832 79.881 270.74 79.0948C270.647 78.3087 270.462 77.4301 270.278 76.5052C269.954 74.933 269.631 73.2683 269.631 71.9272C269.631 70.8174 270.693 69.6613 272.402 69.0602C274.573 68.274 277.298 68.9214 278.545 69.7076L278.361 70.0313C277.16 69.3376 274.619 68.6902 272.587 69.4301C270.878 70.0775 270.093 71.1411 270.093 71.9272C270.093 73.222 270.416 74.8867 270.693 76.459C270.878 77.3839 271.063 78.2625 271.155 79.0948C271.294 80.1122 270.693 80.8521 269.631 81.1295C269.123 81.1758 268.892 81.222 268.384 81.3145Z" fill="#230706"/>
<path d="M255.267 70.355L255.036 69.9389C256.652 69.0602 259.47 68.5516 260.532 68.5516C263.211 68.5516 265.012 69.6152 265.474 69.9389L265.243 70.3088C264.781 69.9851 263.072 69.014 260.532 69.014C259.608 69.0602 256.791 69.5227 255.267 70.355Z" fill="#230706"/>
<path d="M262.195 72.9906C262.195 73.6842 261.78 74.2391 261.272 74.2391C260.764 74.2391 260.348 73.6842 260.348 72.9906C260.348 72.2969 260.764 71.742 261.272 71.742C261.78 71.742 262.195 72.2969 262.195 72.9906Z" fill="#230706"/>
<path d="M260.948 72.1586C261.132 72.3898 261.179 72.7135 261.04 72.806C260.901 72.9447 260.624 72.806 260.44 72.5748C260.255 72.3435 260.209 72.0198 260.347 71.9274C260.44 71.7886 260.717 71.9274 260.948 72.1586Z" fill="white"/>
<path d="M275.405 72.9906C275.405 73.6842 274.989 74.2391 274.481 74.2391C273.973 74.2391 273.558 73.6842 273.558 72.9906C273.558 72.2969 273.973 71.742 274.481 71.742C274.989 71.742 275.405 72.2969 275.405 72.9906Z" fill="#230706"/>
<path d="M274.157 72.1586C274.342 72.3898 274.388 72.7135 274.25 72.806C274.111 72.9447 273.834 72.806 273.649 72.5748C273.464 72.3435 273.418 72.0198 273.557 71.9274C273.695 71.7886 273.926 71.9274 274.157 72.1586Z" fill="white"/>
<path d="M257.068 73.2221V72.8059C258.269 72.8059 258.823 72.4822 259.331 72.1585C259.47 72.066 259.562 72.0198 259.701 71.9273C261.641 70.8637 262.841 71.9273 263.534 72.8059L263.211 73.0834C262.518 72.251 261.548 71.4187 259.885 72.2973C259.793 72.3435 259.654 72.436 259.562 72.4822C259.008 72.8059 258.361 73.2221 257.068 73.2221Z" fill="#230706"/>
<path d="M276.605 73.222C276.236 73.222 275.866 72.8983 275.497 72.5746C275.266 72.3896 275.035 72.2046 274.85 72.1122C274.157 71.7422 273.326 72.1122 272.679 73.0833L272.31 72.852C273.095 71.696 274.111 71.2798 275.035 71.7422C275.266 71.8809 275.497 72.0659 275.774 72.2509C276.051 72.4821 276.42 72.7596 276.605 72.7596V73.222Z" fill="#230706"/>
<path d="M269.209 64.228C271.757 63.5633 274.268 62.677 276.668 61.4953C276.262 61.6799 278.92 65.9266 279.179 66.2959C280.286 67.773 281.69 69.1763 283.314 70.1364C285.493 71.4289 286.748 68.7701 287.228 66.8867C288.373 62.2339 287.302 56.8793 286.342 52.2634C285.714 49.1614 282.207 49.2722 281.246 46.2442L245.725 39.5602C245.725 39.5602 243.14 73.2383 243.325 72.8321C245.023 69.3609 256.507 66.259 259.092 65.9636C261.676 65.7051 265.886 65.1142 269.209 64.228Z" fill="#201212"/>
<path d="M237.047 73.8662C236.641 76.8943 238.746 79.6639 241.737 80.0701C244.765 80.4763 247.534 78.3714 247.94 75.3803C248.346 72.3522 246.242 69.5826 243.251 69.1764C240.223 68.7333 237.454 70.8382 237.047 73.8662Z" fill="#FFBD96"/>
<path d="M245.171 79.9223C244.986 81.2886 243.731 82.2118 242.365 82.0271C240.998 81.8425 240.075 80.587 240.26 79.2206C240.444 77.8543 241.7 76.9311 243.066 77.1158C244.395 77.3373 245.355 78.5929 245.171 79.9223Z" fill="#5C80FF"/>
<path d="M306.282 350.048C306.282 350.307 304.805 356.548 304.731 358.653C304.62 360.721 320.35 362.198 321.569 358.468C317.876 353.52 315.476 355.846 315.365 349.79C315.255 343.771 306.282 350.048 306.282 350.048Z" fill="#FFBD96"/>
<path d="M321.938 356.917C321.199 356.696 320.461 356.474 319.759 356.289C317.691 360.905 310.233 360.684 304.694 358.616C304.657 358.985 304.62 359.244 304.62 359.354L304.583 360.684C304.583 360.979 304.694 361.422 304.841 361.865C309.309 361.865 313.63 361.865 317.987 361.865C320.756 361.865 323.562 361.865 326.369 361.865C326.258 358.837 324.19 357.656 321.938 356.917Z" fill="url(#paint2_linear_2_774)"/>
<path d="M317.987 361.865C313.63 361.865 309.31 361.865 304.842 361.865C305.1 362.53 305.544 363.158 306.024 363.158L317.323 363.306L323.083 363.379L326.332 363.416C326.406 362.862 326.443 362.345 326.406 361.902C323.563 361.865 320.794 361.865 317.987 361.865Z" fill="#00061E"/>
<path d="M350.001 350.048C350.001 350.307 348.524 356.548 348.45 358.653C348.339 360.721 364.069 362.198 365.288 358.468C361.595 353.52 359.195 355.846 359.084 349.79C359.011 343.771 350.001 350.048 350.001 350.048Z" fill="#FFBD96"/>
<path d="M365.657 356.917C364.918 356.696 364.18 356.474 363.478 356.289C361.41 360.905 353.952 360.684 348.413 358.616C348.376 358.985 348.339 359.244 348.339 359.354L348.302 360.684C348.302 360.979 348.413 361.422 348.56 361.865C353.028 361.865 357.349 361.865 361.706 361.865C364.475 361.865 367.281 361.865 370.088 361.865C370.014 358.837 367.946 357.656 365.657 356.917Z" fill="url(#paint3_linear_2_774)"/>
<path d="M361.743 361.865C357.385 361.865 353.065 361.865 348.597 361.865C348.856 362.53 349.299 363.158 349.779 363.158L361.078 363.306L366.838 363.379L370.088 363.416C370.161 362.862 370.198 362.345 370.161 361.902C367.318 361.865 364.512 361.865 361.743 361.865Z" fill="#00061E"/>
<path d="M237.712 112.123C237.712 112.123 245.097 116.924 249.602 140.041C254.144 163.158 259.794 168.143 264.04 172.759C268.286 177.375 300.928 193.18 300.928 193.18L296.386 203.003C296.386 203.003 256.175 184.945 247.756 176.562C239.337 168.217 229.626 127.818 229.921 121.281C230.254 114.782 232.1 107.84 237.712 112.123Z" fill="#FFB896"/>
<path d="M290.921 195.949C289.739 199.199 293.284 203.483 298.86 205.514C304.435 207.545 309.937 206.584 311.119 203.372C312.3 200.122 308.756 195.838 303.18 193.807C297.604 191.776 292.103 192.737 290.921 195.949Z" fill="#FFB896"/>
<path d="M252.888 137.899L233.096 141.518C233.096 141.518 222.794 115.373 234.499 109.834C245.909 110.535 252.888 137.899 252.888 137.899Z" fill="url(#paint4_linear_2_774)"/>
<path d="M259.017 216.149H184.872C183.026 216.149 181.512 217.663 181.512 219.509V283.025C181.512 284.871 183.026 286.385 184.872 286.385H284.828C289.333 286.385 292.988 282.729 292.988 278.224V250.159C292.988 231.363 277.775 216.149 259.017 216.149Z" fill="#FFE7C7"/>
<path d="M259.904 216.149H189.525C185.832 216.149 182.731 218.66 181.807 222.094H248.014C266.292 222.094 281.135 236.902 281.135 255.218V284.243C281.135 284.982 280.988 285.684 280.84 286.348H284.976C289.407 286.348 293.025 282.766 293.025 278.298V249.236C292.988 230.957 278.181 216.149 259.904 216.149Z" fill="#B5C0D9"/>
<path d="M639.16 360.536H649.795C650.09 360.536 650.312 360.315 650.312 360.019V248.904H638.643V360.019C638.68 360.315 638.902 360.536 639.16 360.536Z" fill="#858585"/>
<path d="M539.463 360.536H550.097C550.393 360.536 550.614 360.315 550.614 360.019V248.904H538.946V360.019C538.946 360.315 539.167 360.536 539.463 360.536Z" fill="#858585"/>
<path d="M539.943 286.348H649.425C649.979 286.348 650.422 285.905 650.422 285.351V217.146C650.422 216.592 649.979 216.149 649.425 216.149H543.044C540.755 216.149 538.909 217.995 538.909 220.285V285.351C538.946 285.905 539.389 286.348 539.943 286.348Z" fill="#FF9F58"/>
<path d="M640.083 172.168H723.275C724.05 172.168 724.678 172.796 724.678 173.571V236.237H638.68V173.608C638.68 172.796 639.308 172.168 640.083 172.168Z" fill="#FF9F58"/>
<path d="M620.919 172.168H704.111C704.886 172.168 705.514 172.796 705.514 173.571V236.237H619.516V173.608C619.516 172.796 620.144 172.168 620.919 172.168Z" fill="#FF7D3C"/>
<path d="M561.728 278.15H701.858C702.191 278.15 702.486 277.855 702.486 277.523V234.871C702.486 234.539 702.191 234.243 701.858 234.243H563.648C562.208 234.243 561.063 235.388 561.063 236.828V277.56C561.1 277.892 561.396 278.15 561.728 278.15Z" fill="#FF7D3C"/>
<path d="M713.527 360.536H724.161C724.456 360.536 724.678 360.315 724.678 360.019V248.904H713.01V360.019C713.047 360.315 713.268 360.536 713.527 360.536Z" fill="#A7A7A7"/>
<path d="M613.83 360.536H624.464C624.759 360.536 624.981 360.315 624.981 360.019V248.904H613.313V360.019C613.313 360.315 613.534 360.536 613.83 360.536Z" fill="#D4D4D4"/>
<path d="M562.467 347.02L560.436 360.684L546.109 361.385L547.844 347.02H562.467Z" fill="#FF9E7A"/>
<path d="M561.322 358.062C560.694 357.767 555.118 355.699 547.66 356.252C540.164 356.806 530.305 357.582 529.493 358.727C528.68 359.871 528.865 361.681 528.865 361.681C528.865 361.681 559.623 364.155 560.953 363.601C562.245 363.01 561.322 358.062 561.322 358.062Z" fill="#0F2748"/>
<path d="M615.343 210.462L606.444 216.813C606.444 216.813 556.448 224.568 551.832 235.462C548.177 244.029 548.177 339.857 547.438 347.02L563.242 348.793C563.242 348.793 566.344 338.269 567.821 333.542C573.729 314.598 586.468 273.239 577.569 257.175C577.569 257.175 637.867 226.488 637.387 209.612L615.343 210.462Z" fill="#2E4885"/>
<path d="M599.982 348.239L598.727 361.976L586.357 362.382L585.36 349.088L599.982 348.239Z" fill="#FF9E7A"/>
<path d="M599.023 359.391C598.395 359.17 592.93 357.471 585.767 358.431C578.603 359.391 569.15 360.684 568.449 361.829C567.747 362.973 568.006 364.672 568.006 364.672C568.006 364.672 597.693 365.3 598.949 364.709C600.204 364.118 599.023 359.391 599.023 359.391Z" fill="#0F2748"/>
<path d="M678.337 222.759C679.703 230.329 679.925 249.014 669.881 251.599H615.454L600.758 252.153C600.758 252.153 609.989 278.667 607.663 304.628C607.072 311.422 603.416 327.375 602.419 335.868C601.423 344.362 600.536 349.162 600.536 349.162H584.437C584.437 349.162 568.227 256.548 570.627 241.961C573.027 227.375 606.481 227.338 614.162 223.682C621.842 220.026 623.061 209.908 623.061 209.908L677.783 212.567C677.894 216.186 677.931 220.358 678.337 222.759Z" fill="#365DAB"/>
<path d="M574.024 166.407C574.024 166.407 542.121 178.076 531.745 176.858C518.969 175.344 524.064 191.001 533.111 192.109C542.121 193.217 570.553 189.819 582.664 184.022L574.024 166.407Z" fill="#FFBCAE"/>
<path d="M545.37 179.221C547.955 185.24 545.038 192.146 538.834 194.657C532.631 197.168 525.467 194.325 522.883 188.305C520.298 182.286 523.215 175.381 529.418 172.87C535.622 170.359 542.785 173.202 545.37 179.221Z" fill="#FFBCAE"/>
<path d="M564.535 190.706C564.535 190.706 608.143 179.96 612.131 172.353C618.925 159.465 641.708 84.5754 633.695 85.4247C621.436 86.7172 606.961 93.2903 604.192 116.629C603.454 122.759 600.02 132.803 598.838 136.68C594.702 150.381 596.179 144.324 594.075 154.369L558.479 171.614L564.535 190.706Z" fill="url(#paint5_linear_2_774)"/>
<path d="M558.59 167.847C557.223 168.18 556.374 169.546 556.743 170.875L561.913 190.225C562.282 191.555 563.685 192.367 565.051 192.035C566.418 191.703 567.267 190.336 566.898 189.007L561.728 169.657C561.359 168.327 559.956 167.515 558.59 167.847Z" fill="white"/>
<path d="M641.375 83.6891C641.375 83.6891 673.463 83.4306 678.743 93.1426C683.543 101.931 681.18 136.533 679.297 151.932C677.451 167.33 677.894 205.624 677.894 205.624L615.343 204.701C615.343 204.701 610.838 116.444 615.159 100.971C619.442 85.4985 631.664 84.76 641.375 83.6891Z" fill="url(#paint6_linear_2_774)"/>
<path d="M615.344 210.462L677.784 212.493L677.894 205.624L615.344 204.554V210.462Z" fill="#10559B"/>
<path d="M620.402 211.717C619.701 211.016 619.368 210.093 619.368 209.133L619.442 205.994C619.479 204.48 620.771 203.261 622.322 203.298L634.101 203.52C635.098 203.556 635.985 203.926 636.686 204.627C637.388 205.329 637.72 206.252 637.72 207.212L637.646 209.502C637.572 211.496 635.874 213.047 633.843 213.01L622.913 212.788C621.99 212.788 621.067 212.382 620.402 211.717ZM622.359 204.517C621.51 204.517 620.771 205.181 620.734 206.031L620.661 209.169C620.624 209.797 620.882 210.425 621.325 210.868C621.768 211.311 622.359 211.57 623.024 211.57L633.954 211.791C635.283 211.828 636.428 210.757 636.465 209.465L636.538 207.175C636.538 206.548 636.317 205.92 635.874 205.477C635.431 205.034 634.84 204.775 634.175 204.775L622.359 204.517Z" fill="#FFD100"/>
<path d="M627.824 208.837L637.019 209.022C637.351 209.022 637.646 208.763 637.646 208.431C637.646 208.099 637.388 207.803 637.019 207.803L627.824 207.618C627.492 207.618 627.197 207.877 627.197 208.209C627.197 208.542 627.455 208.837 627.824 208.837Z" fill="#FFD100"/>
<path d="M630.667 92.6626C630.667 92.6626 631.996 110.683 638.643 116.592C638.643 116.592 656.736 95.6168 656.662 89.0806C656.699 89.0806 640.526 96.0968 630.667 92.6626Z" fill="white"/>
<path d="M632.107 86.4586C632.107 86.4586 635.652 74.4571 633.473 66.1115C631.295 57.7658 655.185 58.2828 655.444 65.1883C655.739 72.7585 655.148 77.8914 656.33 85.2031C656.33 85.2031 652.231 93.2903 643.037 93.6596C633.843 94.0288 632.107 86.4586 632.107 86.4586Z" fill="#FFBCAE"/>
<path d="M641.228 93.6227C641.228 93.6227 653.671 92.958 656.035 83.283C656.035 83.283 659.727 90.7793 650.865 101.008C650.865 101.008 643.997 93.8074 641.228 93.6227Z" fill="white"/>
<path d="M632.698 84.2062C632.698 84.2062 629.227 88.4529 631.406 100.085C631.406 100.085 637.831 93.475 640.785 93.6227C640.785 93.5858 631.627 91.0009 632.698 84.2062Z" fill="white"/>
<path d="M650.68 101.599C650.57 101.599 650.459 101.562 650.385 101.451C644.809 95.3214 640.563 94.1766 640.526 94.1766C638.828 94.1766 633.547 98.4602 631.664 100.122C631.553 100.233 631.406 100.233 631.258 100.196C631.11 100.159 631.036 100.011 630.999 99.9004C630.963 99.605 629.892 92.4041 630.852 87.6035C630.889 87.3819 631.073 87.2711 631.295 87.308C631.516 87.345 631.664 87.5665 631.59 87.7512C630.852 91.5547 631.443 97.1308 631.664 99.088C633.437 97.5739 638.532 93.4011 640.6 93.438C640.858 93.5119 645.068 94.6197 650.644 100.676C652.01 99.2726 657.733 92.6995 655.887 84.1692C655.85 83.9476 655.961 83.763 656.182 83.6891C656.404 83.6522 656.588 83.763 656.662 83.9845C658.804 94.0289 650.976 101.451 650.902 101.525C650.865 101.562 650.754 101.599 650.68 101.599Z" fill="#B5C0D9"/>
<path d="M640.637 79.6641L636.944 79.8118C627.196 80.181 618.925 72.4262 618.556 62.6035L617.817 43.438C617.448 33.5783 625.092 25.1957 634.84 24.8264L638.532 24.6787C648.28 24.3094 656.552 32.0642 656.921 41.887L657.659 61.0525C658.029 70.9122 650.385 79.2948 640.637 79.6641Z" fill="#FFBCAE"/>
<path d="M618.519 62.0865C618.519 62.0865 622.174 64.5976 628.562 64.4499C633.4 64.3391 639.086 64.7453 643.665 63.5636C646.102 62.9358 647.911 60.794 648.317 58.2829L649.056 53.9624L652.379 55.8826C652.379 55.8826 653.376 74.4573 648.243 80.735C643.369 86.7173 629.892 90.3362 623.614 83.3569C617.263 76.2298 618.519 62.0865 618.519 62.0865Z" fill="#191919"/>
<path d="M617.965 50.4172C617.965 50.4172 618.667 35.9784 619.221 34.3906C619.811 32.8027 617.596 37.0863 617.596 37.0863C617.596 37.0863 616.673 45.0627 617.965 50.4172Z" fill="#191919"/>
<path d="M646.213 35.166C646.213 35.166 648.945 38.231 649.019 43.8441L649.056 54.3315C652.49 58.3567 655.222 56.2887 655.444 61.6063L655.555 71.7983C655.555 71.7983 657.659 66.37 659.801 62.3448C661.943 58.3197 664.121 51.4512 661.241 45.7643C659.986 43.2901 661.093 41.7392 661.684 39.8189C662.903 35.8677 660.872 33.1719 660.207 29.3684C659.026 23.1645 646.213 35.166 646.213 35.166Z" fill="#191919"/>
<path d="M663.383 57.9136C663.493 61.274 660.909 64.1175 657.585 64.2652C654.262 64.4129 652.231 61.7541 652.121 58.3567C652.01 54.9963 653.819 52.1898 657.142 52.0421C660.466 51.8944 663.272 54.5162 663.383 57.9136Z" fill="#FFBCAE"/>
<path d="M646.36 36.68C646.36 36.68 640.341 38.7111 635.689 37.0862C631.036 35.4614 623.762 41.0006 618.63 37.7509C613.497 34.5013 610.174 31.2517 613.719 23.3122C617.263 15.3727 626.79 14.3757 630.409 17.1822C639.492 24.2354 642.188 16.0005 647.173 17.1083C653.376 18.5116 650.754 20.0626 656.035 21.4289C662.238 23.0168 660.096 25.7494 660.576 28.1128C660.982 30.1438 666.78 34.8336 661.647 39.8189C655.148 46.2074 646.36 36.68 646.36 36.68Z" fill="#191919"/>
<path d="M629.818 217.921C629.818 217.921 648.872 208.948 655.887 199.458C661.832 191.407 654.115 180.624 650.349 181.954C646.582 183.283 628.267 201.378 620.292 206.474C614.901 209.908 629.818 217.921 629.818 217.921Z" fill="#FFBCAE"/>
<path d="M633.363 207.951C635.652 214.081 632.366 220.839 626.015 223.017C619.664 225.196 612.685 221.983 610.433 215.853C608.143 209.723 611.43 202.966 617.781 200.787C624.095 198.608 631.11 201.821 633.363 207.951Z" fill="#FFBCAE"/>
<path d="M664.343 92.5149C669.844 85.277 676.786 89.4868 681.587 94.5459C687.901 101.23 687.716 124.457 687.458 136.2C686.793 166.407 687.79 156.252 685.648 174.125C684.762 181.511 661.056 199.088 655.813 201.895L642.631 187.198C642.631 187.198 661.389 168.992 662.053 163.084C663.087 153.852 660.503 126.341 660.539 117.921C660.539 110.24 660.17 98.0171 664.343 92.5149Z" fill="url(#paint7_linear_2_774)"/>
<path d="M638.164 185.536C636.982 186.496 636.871 188.158 637.905 189.265L653.155 205.477C654.189 206.585 656.035 206.732 657.217 205.772C658.398 204.812 658.509 203.15 657.475 202.042L642.225 185.831C641.191 184.723 639.345 184.576 638.164 185.536Z" fill="white"/>
<path d="M720.986 216.149H646.139C628.009 216.149 613.313 230.846 613.313 248.977V276.636C613.313 281.991 617.67 286.348 623.024 286.348H720.986C723.09 286.348 724.789 284.65 724.789 282.545V219.952C724.789 217.847 723.09 216.149 720.986 216.149Z" fill="#FF9F58"/>
<path d="M646.397 216.149H716.739C720.432 216.149 723.533 218.66 724.456 222.094H658.25C639.972 222.094 625.128 236.902 625.128 255.218V284.243C625.128 284.982 625.239 285.684 625.424 286.348H621.288C616.857 286.348 613.239 282.766 613.239 278.298V249.236C613.312 230.957 628.119 216.149 646.397 216.149Z" fill="#D4D4D4"/>
<path d="M458.265 217.589V323.83C458.265 326.747 455.902 339.044 452.985 339.044C450.068 339.044 447.704 326.747 447.704 323.83V217.589C447.704 214.672 450.068 212.308 452.985 212.308C455.902 212.345 458.265 214.709 458.265 217.589Z" fill="#655E6F"/>
<path d="M530.933 220.285H375.073C372.156 220.285 369.792 217.921 369.792 215.004C369.792 212.087 372.156 209.723 375.073 209.723H530.933C533.85 209.723 536.213 212.087 536.213 215.004C536.213 217.921 533.85 220.285 530.933 220.285Z" fill="#655E6F"/>
<path d="M486.254 360.536H419.752C416.835 360.536 414.472 358.173 414.472 355.255C414.472 352.338 416.835 349.975 419.752 349.975H486.254C489.171 349.975 491.534 352.338 491.534 355.255C491.534 358.173 489.171 360.536 486.254 360.536Z" fill="#655E6F"/>
<path d="M427.986 352.338L452.985 317.405L477.983 352.338H427.986Z" fill="#655E6F"/>
<path d="M638.29 67.942C638.29 68.4086 635.49 69.5749 632.108 69.6916C628.725 69.8082 625.926 68.6418 625.926 68.0586C625.926 67.7087 628.725 67.8254 632.108 67.7087C635.49 67.5921 638.29 67.3588 638.29 67.942Z" fill="white"/>
<path d="M631.974 60.5311V59.9479C631.74 59.9479 631.507 59.9479 631.274 59.9479C629.874 59.9479 628.241 59.9479 627.308 59.1314C626.841 58.6649 626.841 57.8484 627.308 56.5653L627.425 56.2154C628.124 54.2326 629.757 50.1502 629.058 47.5841C628.708 46.4177 627.775 45.4846 626.958 45.2513C624.509 44.5515 621.943 45.368 619.61 46.651L619.843 47.1176C622.176 45.9512 625.675 45.368 627.541 46.5344C627.891 46.7676 628.358 47.2342 628.474 47.8174C629.058 50.2668 627.541 54.2326 626.841 56.0988L626.725 56.4487C626.142 57.965 626.258 59.0148 626.841 59.598C627.891 60.5311 629.641 60.5311 631.157 60.5311C631.507 60.4144 631.74 60.4144 631.974 60.5311Z" fill="#191919"/>
<path d="M638.272 50.15C638.272 51.0831 638.856 51.7829 639.555 51.7829C640.255 51.7829 640.838 50.9664 640.838 50.0333C640.838 49.1002 640.255 48.4004 639.555 48.4004C638.739 48.517 638.272 49.2169 638.272 50.15Z" fill="#191919"/>
<path d="M621.709 50.7332C621.709 51.6663 622.292 52.3661 622.992 52.3661C623.692 52.3661 624.275 51.5496 624.275 50.6165C624.275 49.6834 623.692 48.9836 622.992 48.9836C622.292 48.9836 621.709 49.8001 621.709 50.7332Z" fill="#191919"/>
<path d="M647.603 46.1841L647.836 45.6009C645.27 44.6678 642.937 44.2012 640.138 44.3178C637.572 44.4345 635.706 44.901 634.073 46.0674L634.423 46.534C635.822 45.4842 637.572 45.0177 640.138 44.901C642.937 44.901 645.153 45.251 647.603 46.1841Z" fill="#191919"/>
<path d="M639.904 48.9839C639.671 49.3338 639.554 49.6838 639.787 49.8004C640.021 49.917 640.371 49.8004 640.604 49.4505C640.837 49.1005 640.954 48.7507 640.721 48.634C640.487 48.5174 640.137 48.634 639.904 48.9839Z" fill="white"/>
<path d="M623.342 49.5668C623.108 49.9167 622.992 50.2667 623.225 50.3833C623.458 50.4999 623.808 50.3833 624.041 50.0334C624.275 49.6834 624.391 49.3335 624.158 49.2169C624.041 49.1003 623.691 49.2169 623.342 49.5668Z" fill="white"/>
<path d="M643.405 50.1502L643.755 49.6836C640.606 46.8843 638.273 48.4006 637.34 49.1004L637.69 49.567C638.623 48.7505 640.606 47.7008 643.405 50.1502Z" fill="#191919"/>
<path d="M625.094 50.6166L625.561 50.2667C624.628 48.7504 623.578 48.5171 622.878 48.6338C621.712 48.7504 620.895 49.6835 620.779 50.0334L621.362 50.2667C621.478 50.0334 622.178 49.3336 622.995 49.217C623.695 49.1003 624.394 49.5669 625.094 50.6166Z" fill="#191919"/>
<path d="M792.841 344.546C794.835 350.159 791.918 356.326 786.305 358.357C780.693 360.352 774.526 357.434 772.495 351.821C770.501 346.208 773.418 340.041 779.031 338.01C784.681 336.016 790.847 338.933 792.841 344.546Z" fill="#0F2748"/>
<path d="M821.938 331.622L777.48 347.501C775.745 348.129 773.861 347.205 773.234 345.507L727.114 216.481C726.487 214.746 727.41 212.862 729.108 212.235L773.566 196.356C776.779 195.211 780.286 196.873 781.431 200.085L825.63 323.793C826.812 326.932 825.15 330.477 821.938 331.622Z" fill="#579D45"/>
<path d="M741.294 215.669L737.306 217.367C737.01 217.478 736.678 217.367 736.567 217.072L698.645 128.852C698.535 128.556 698.645 128.224 698.941 128.113L702.929 126.414C703.224 126.304 703.556 126.414 703.667 126.71L741.589 214.93C741.737 215.189 741.589 215.521 741.294 215.669Z" fill="#579D45"/>
<path d="M747.087 205.752L744.932 206.523L793.307 341.818L795.463 341.047L747.087 205.752Z" fill="white"/>
<path d="M778.551 284.834L770.76 287.604C770.428 287.715 770.059 287.567 769.948 287.235L761.492 263.601C761.381 263.268 761.529 262.899 761.861 262.788L769.652 260.019C769.985 259.908 770.354 260.056 770.465 260.388L778.921 284.022C779.031 284.354 778.884 284.723 778.551 284.834Z" fill="white"/>
<path d="M367.023 167.921C367.023 167.921 362.961 190.816 351.625 190.816C340.289 190.816 340.289 190.816 340.289 190.816C340.289 190.816 334.603 176.008 330.947 167.921C343.945 167.921 367.023 167.921 367.023 167.921Z" fill="#B3958B"/>
<path d="M339.772 188.12C340.659 188.12 341.397 187.382 341.397 186.496C341.397 185.609 340.659 184.871 339.772 184.871C334.824 184.871 331.723 183.098 330.541 179.664C329.803 177.522 329.913 175.565 330.836 174.273C331.501 173.349 332.572 172.869 333.901 172.869C334.787 172.869 335.526 172.131 335.526 171.245C335.526 170.358 334.787 169.62 333.901 169.62C331.501 169.62 329.47 170.617 328.178 172.389C326.664 174.531 326.405 177.559 327.476 180.698C329.101 185.499 333.458 188.12 339.772 188.12Z" fill="#B3958B"/>
<path d="M401.51 203.482C401.806 203.556 404.575 205.403 407.012 207.028C409.412 208.615 412.182 209.465 415.062 209.465H444.86C446.485 209.465 448.073 208.874 449.291 207.766L454.091 203.482H401.51V203.482Z" fill="#B3958B"/>
<defs>
<linearGradient id="paint0_linear_2_774" x1="286.281" y1="77.9333" x2="269.959" y2="144.517" gradientUnits="userSpaceOnUse">
<stop stop-color="#579D45"/>
<stop offset="1" stop-color="#579D45"/>
</linearGradient>
<linearGradient id="paint1_linear_2_774" x1="255.335" y1="105.571" x2="253.274" y2="253.827" gradientUnits="userSpaceOnUse">
<stop stop-color="#67B353"/>
<stop offset="1" stop-color="#4A9836"/>
</linearGradient>
<linearGradient id="paint2_linear_2_774" x1="304.595" y1="359.086" x2="326.396" y2="359.086" gradientUnits="userSpaceOnUse">
<stop stop-color="#E50000"/>
<stop offset="1" stop-color="#BB0000"/>
</linearGradient>
<linearGradient id="paint3_linear_2_774" x1="348.335" y1="359.086" x2="370.137" y2="359.086" gradientUnits="userSpaceOnUse">
<stop stop-color="#E50000"/>
<stop offset="1" stop-color="#BB0000"/>
</linearGradient>
<linearGradient id="paint4_linear_2_774" x1="259.747" y1="82.1276" x2="233.576" y2="145.492" gradientUnits="userSpaceOnUse">
<stop stop-color="#579D45"/>
<stop offset="1" stop-color="#579D45"/>
</linearGradient>
<linearGradient id="paint5_linear_2_774" x1="529.867" y1="99.9121" x2="612.309" y2="145.171" gradientUnits="userSpaceOnUse">
<stop stop-color="#FFE459"/>
<stop offset="0.8109" stop-color="#E2CA4E"/>
<stop offset="1" stop-color="#F9A931"/>
</linearGradient>
<linearGradient id="paint6_linear_2_774" x1="585.92" y1="114.612" x2="668.362" y2="159.871" gradientUnits="userSpaceOnUse">
<stop stop-color="#E4BF40"/>
<stop offset="1" stop-color="#F3AA3D"/>
</linearGradient>
<linearGradient id="paint7_linear_2_774" x1="638.175" y1="198.32" x2="690.988" y2="105.635" gradientUnits="userSpaceOnUse">
<stop stop-color="#F9D149"/>
<stop offset="1" stop-color="#F4A226"/>
</linearGradient>
</defs>
</svg>
